<svg width="383" height="81" viewBox="0 0 383 81" fill="none" xmlns="http://www.w3.org/2000/svg">
<path opacity="0.3" d="M382 37.2921C377.941 67.881 372.824 53.3643 371.941 48.0069L369.647 34.3542C367.529 21.9113 364.882 21.9113 363.647 34.527L361.706 56.1294C359.588 79.287 356.941 79.287 355.706 55.9565L353.765 18.4549C352.529 -4.70277 349.882 -4.87559 347.765 18.2821L345.471 44.2049C344.588 54.4012 341.941 54.574 339.471 44.5505L338.235 39.5388C336.824 33.6629 334.176 33.6629 332.412 39.366L330.471 45.5874C329.059 49.9079 326.588 49.9079 324.824 45.7602L322.176 39.366C321.118 36.6009 318.647 36.428 316.882 38.8475L314.588 41.9582C313.176 43.8592 311.059 43.8592 309.647 41.9582L308.588 40.5757C306.118 37.2921 303.647 37.8106 303.118 41.9582L301 56.8206C299.235 69.9548 296.588 69.9548 295 56.8206L292 31.0707C290.765 20.3559 288.118 20.1831 286 30.8978L285.647 32.9717C283.529 43.6864 280.882 43.5136 279.647 32.7989L277.706 15.3442C275.588 -2.97459 272.941 -2.97458 271.706 15.517L268.176 67.0169C266.941 84.2988 264.294 84.2988 262.176 67.1897L259.176 42.3039C258.647 38.1562 256.176 37.465 253.706 40.9213L253 41.7854C251.412 43.8592 249.294 43.6864 247.882 41.6126L247.176 40.5757C245.412 37.465 242.941 37.6378 241.706 41.0941L239.765 46.6243C237.647 52.8458 235 52.5002 233.941 46.1059L230.588 26.4046C229.176 18.2821 226.529 18.2821 224.588 26.2317L221.941 37.2921C220.882 41.7854 218.412 42.1311 216.294 37.9834L214.882 35.0455C213.471 31.9348 211 31.9348 209.412 35.0455L206.412 41.0941C205.176 43.5136 202.882 43.8592 201.294 41.6126L200.059 39.8844C197.941 37.1193 195.647 37.465 194.765 40.7485L193.353 46.1059C191.588 52.5002 188.941 52.5002 187.529 45.9331L184.706 32.9717C183.471 27.2687 180.824 27.0958 178.882 32.626L176.412 40.0572C175.353 42.9951 173.059 43.3408 171.118 40.7485L170.412 39.7116C168.294 36.9465 166 37.2921 165.118 40.5757L162.294 50.5992C160.353 57.3391 157.706 57.3391 156.471 50.4263L154.353 39.7116C152.588 30.2066 149.765 30.2066 148.353 39.8844L146.235 53.5371C144.471 65.6344 141.824 65.4616 140.235 53.5371L138.647 40.5757C136.706 24.8492 134.059 24.8492 132.647 40.7485L131.765 50.0807C130 69.9548 127.353 69.9548 125.765 50.0807L124 28.1328C122.235 6.53044 119.588 6.53044 118 28.1328L116.059 54.4012C114.294 78.5958 111.647 78.5958 110.059 54.4012L107.765 20.3559C106.176 -3.66586 103.529 -3.66586 101.765 20.3559L99.8235 46.1059C99.1176 55.6109 96.4706 55.7837 93.8235 46.6243L91.7059 38.8475C90.2941 33.6629 87.6471 33.6629 85.8824 38.6747L83.9412 44.3777C82.3529 48.871 79.8824 48.871 78.2941 44.3777L76.8824 40.2301C75.8235 37.2921 73.3529 36.9465 71.5882 39.5388L69.4706 42.3039C68.0588 44.2049 65.9412 44.2049 64.5294 42.3039L63.2941 40.5757C61 37.465 58.5294 37.9834 57.8235 41.7854L55 58.0304C52.8824 70.4733 50.2353 70.4733 49 57.8575L45.8235 22.0841C44.4118 6.70326 41.7647 6.70325 39.8235 21.9113L37.3529 42.3039C36.2941 50.772 33.6471 50.9448 31.3529 42.6495L29.5882 36.2552C28.3529 31.7619 25.8824 31.5891 23.9412 35.7368L22 40.2301C20.5882 43.168 18.2941 43.3408 16.5294 40.5757C14.7647 37.465 12.2941 37.6378 11.0588 41.0941L8.58824 48.1797C6.82353 53.5371 4 55.2653 1 40.4029" stroke="#393F65" stroke-width="2" stroke-miterlimit="10" stroke-linecap="round" stroke-linejoin="round"/>
</svg>
