<svg width="383" height="67" viewBox="0 0 383 67" fill="none" xmlns="http://www.w3.org/2000/svg">
<path d="M1 33.1455L4.88415 40.1923C7.17933 44.3231 9.65107 44.0801 10.7104 39.6253L13.0056 28.4477C15.1242 18.1612 17.7725 18.2422 19.0083 28.6097L20.9504 46.51C23.069 65.6252 25.7173 65.5442 26.9532 46.429L28.8953 15.4073C30.1311 -3.78892 32.7794 -3.78892 34.8981 15.3263L37.1932 36.7904C38.076 45.214 40.7243 45.376 43.196 37.1144L44.4319 32.9836C45.8443 28.2048 48.4926 28.1238 50.2581 32.8216L52.2002 38.0053C53.6126 41.5692 56.0843 41.6502 57.8499 38.1673L60.4981 32.8216C61.5575 30.5537 64.0292 30.3107 65.7947 32.3356L68.0899 34.9275C69.5023 36.4664 71.6209 36.4664 73.0334 34.9275L74.0927 33.7935C76.5644 31.0396 79.0361 31.5256 79.5658 34.8465L81.6844 47.077C83.45 57.8495 86.0982 57.8495 87.6872 46.996L90.6886 25.6939C91.9245 16.8652 94.5728 16.7842 96.6914 25.5319L97.0445 27.1518C99.1631 35.9804 101.811 35.8994 103.047 26.9898L104.989 12.5724C107.108 -2.57396 109.756 -2.57396 110.992 12.6534L114.523 55.2576C115.759 69.513 118.407 69.594 120.526 55.4196L123.527 34.9275C124.057 31.5256 126.529 30.9586 129 33.7935L129.707 34.5225C131.296 36.2234 133.414 36.1424 134.827 34.2795L135.533 33.3885C137.298 30.7966 139.77 30.9586 141.006 33.7935L142.948 38.4103C145.067 43.5131 147.715 43.3511 148.774 38.0053L152.129 21.725C153.541 15.0023 156.19 15.0023 158.132 21.563L160.25 30.7966C161.31 34.6035 163.781 34.7655 165.9 31.2826L167.312 28.8527C168.725 26.3418 171.196 26.3418 172.785 28.8527L175.787 33.8745C177.023 35.8994 179.318 36.0614 180.907 34.2795L182.143 32.9026C184.261 30.5537 186.557 30.9586 187.439 33.7125L188.852 38.0863C190.617 43.4321 193.266 43.3511 194.678 38.0053L197.503 27.3138C198.739 22.616 201.387 22.454 203.329 27.0708L205.801 33.2265C206.86 35.7374 209.155 35.9804 211.097 33.8745L211.804 32.9836C213.922 30.7156 216.217 31.0396 217.1 33.7935L219.925 42.1362C221.867 47.7249 224.515 47.6439 225.751 41.9742L227.87 33.0645C229.635 25.2079 232.46 25.2889 233.873 33.1455L235.991 44.4041C237.757 54.2857 240.405 54.2857 241.994 44.3231L243.583 33.5505C245.525 20.5101 248.173 20.5911 249.586 33.6315L250.468 41.4072C252.234 57.8495 254.882 57.8495 256.471 41.4072L258.237 23.345C260.002 5.4447 262.651 5.5257 264.24 23.345L266.182 45.0521C267.947 65.0582 270.595 65.0582 272.184 45.0521L274.48 16.9462C276.069 -2.89795 278.717 -2.97895 280.482 16.9462L282.424 38.1673C283.131 46.024 285.779 46.186 288.427 38.6533L290.546 32.1736C291.958 27.9618 294.607 27.8808 296.372 32.0116L298.491 36.4664C300.08 40.1923 302.551 40.1923 304.14 36.4664L305.553 33.0645C306.612 30.6347 309.084 30.3107 310.849 32.4166L312.968 34.7655C314.38 36.3044 316.499 36.3044 317.911 34.7655L319.147 33.3885C321.443 30.7156 323.914 31.2016 324.62 34.4415L327.445 47.8869C329.564 58.1735 332.212 58.0925 333.448 47.7249L336.626 18.1612C338.038 5.4447 340.687 5.4447 342.629 18.0802L345.101 34.8465C346.16 41.8932 348.808 42.0552 351.103 35.1705L352.869 29.8247C354.105 26.0988 356.576 25.9368 358.519 29.4197L360.461 33.0645C361.873 35.4944 364.168 35.5754 365.934 33.3075C367.699 30.7156 370.171 30.8776 371.407 33.7125L373.879 39.5443C375.644 43.9991 378.292 43.9181 379.705 39.3013L382 31.6876" stroke="#828282" stroke-width="2" stroke-miterlimit="10" stroke-linecap="round" stroke-linejoin="round"/>
</svg>
